<svg xmlns="http://www.w3.org/2000/svg" version="1.1" xmlns:xlink="http://www.w3.org/1999/xlink" xmlns:svgjs="http://svgjs.dev/svgjs" width="1500" height="960" viewBox="0 0 1500 960"><g transform="matrix(1,0,0,1,0.15999999999996817,0.5860200000001896)"><svg viewBox="0 0 375 240" data-background-color="#ffffff" preserveAspectRatio="xMidYMid meet" height="960" width="1500" xmlns="http://www.w3.org/2000/svg" xmlns:xlink="http://www.w3.org/1999/xlink"><g id="tight-bounds" transform="matrix(1,0,0,1,-0.03976000000000113,-0.14621500000006904)"><svg viewBox="0 0 375.07953 240.2927200000001" height="240.2927200000001" width="375.07953"><g><svg></svg></g><g><svg viewBox="0 0 375.07953 240.2927200000001" height="240.2927200000001" width="375.07953"><g transform="matrix(1,0,0,1,-10.22024,-6.907289999999989)"><path d="M10.22 240.293v-233.386h375.08v233.386l-4.392 0v-16.163l-5.498 0v-207.333h-355.3l0 207.333h-5.498l0 16.163z" fill="#a3c0c4" fill-rule="nonzero" stroke="none" stroke-width="1" stroke-linecap="butt" stroke-linejoin="miter" stroke-miterlimit="10" stroke-dasharray="" stroke-dashoffset="0" font-family="none" font-weight="none" font-size="none" text-anchor="none" style="mix-blend-mode: normal" data-fill-palette-color="tertiary"></path><g><path d="M44.281 246.882v-22.512h3.803l7.223 13.654 7.34-13.654h3.563v22.512h-2.694v-18.651l-6.924 12.2h-2.693l-6.924-12.2v18.651zM87.327 246.882h-13.194v-22.512h13.194v2.375h-10.5v7.353h9.63v2.375h-9.63v8.034h10.5zM107.659 246.882h-13.2v-22.512h13.2v2.375h-10.507v7.353h9.631v2.375h-9.631v8.034h10.507zM111.539 226.745v-2.375h17.743v2.375h-7.528v20.137h-2.693v-20.137zM132.215 246.882v-3.329h3.329v3.329zM161.827 224.194v0c2.535 0 4.949 0.638 7.243 1.915v0l-1.065 2.012c-0.805-0.42-1.739-0.783-2.803-1.091-1.069-0.307-2.146-0.461-3.232-0.46v0c-1.112 0-2.183 0.205-3.212 0.616-1.03 0.415-1.945 0.995-2.745 1.739-0.805 0.744-1.447 1.683-1.928 2.817-0.48 1.138-0.72 2.382-0.72 3.731v0c0 1.787 0.396 3.392 1.187 4.816 0.792 1.428 1.886 2.537 3.284 3.329 1.393 0.792 2.951 1.188 4.673 1.187v0c2.038 0 3.695-0.612 4.971-1.836v0-5.75h-6.399v-2.219h9.014v8.838c-0.286 0.329-0.614 0.647-0.986 0.954-0.376 0.307-0.9 0.66-1.571 1.058-0.671 0.402-1.497 0.727-2.479 0.974-0.982 0.251-2.044 0.376-3.186 0.376v0c-1.501 0-2.881-0.225-4.141-0.675-1.263-0.45-2.323-1.049-3.18-1.798-0.857-0.748-1.579-1.622-2.167-2.621-0.593-0.999-1.025-2.042-1.298-3.128-0.277-1.09-0.415-2.2-0.415-3.329v0c0-1.181 0.151-2.33 0.454-3.446 0.299-1.116 0.759-2.159 1.382-3.128 0.623-0.973 1.371-1.821 2.246-2.544 0.87-0.723 1.912-1.294 3.128-1.714 1.216-0.415 2.531-0.623 3.945-0.623zM191.926 230.548v0c0 0.748-0.089 1.46-0.266 2.135-0.182 0.679-0.461 1.324-0.837 1.934-0.381 0.614-0.906 1.146-1.577 1.596-0.671 0.446-1.456 0.774-2.356 0.987v0l6.353 9.682h-3.011l-6.1-9.377h-4.355v9.377h-2.712v-22.512h8.274c0.381 0 0.725 0.011 1.032 0.032 0.303 0.022 0.694 0.076 1.174 0.162 0.485 0.091 0.911 0.212 1.279 0.364 0.368 0.156 0.755 0.389 1.161 0.701 0.407 0.311 0.746 0.679 1.019 1.103 0.268 0.42 0.489 0.958 0.662 1.616 0.173 0.653 0.26 1.387 0.26 2.2zM179.777 226.732v8.391h3.881c0.541 0 1.017-0.017 1.428-0.052 0.411-0.039 0.893-0.138 1.447-0.299 0.554-0.164 1.015-0.392 1.382-0.681 0.363-0.294 0.675-0.718 0.935-1.272 0.255-0.554 0.383-1.211 0.383-1.973v0c0-0.536-0.067-1.021-0.201-1.453-0.138-0.433-0.314-0.79-0.526-1.071-0.212-0.281-0.469-0.523-0.772-0.727-0.307-0.208-0.604-0.363-0.889-0.467-0.286-0.108-0.604-0.193-0.954-0.253-0.346-0.065-0.634-0.106-0.864-0.124-0.225-0.013-0.465-0.019-0.72-0.019v0zM209.26 224.13v0c1.493 0 2.886 0.262 4.179 0.785 1.294 0.523 2.412 1.261 3.355 2.213 0.947 0.947 1.689 2.133 2.226 3.556 0.541 1.419 0.811 2.979 0.811 4.679v0c0 2.302-0.456 4.348-1.369 6.139-0.917 1.791-2.185 3.176-3.803 4.153-1.622 0.978-3.459 1.467-5.51 1.467v0c-1.35 0-2.643-0.24-3.881-0.72-1.237-0.485-2.351-1.185-3.342-2.103-0.991-0.917-1.782-2.118-2.375-3.602-0.593-1.484-0.889-3.156-0.889-5.016v0c0-1.744 0.27-3.338 0.811-4.783 0.536-1.449 1.274-2.667 2.213-3.653 0.943-0.986 2.064-1.752 3.362-2.298 1.298-0.545 2.702-0.818 4.212-0.817zM209.117 226.492v0c-0.96 0-1.884 0.18-2.771 0.538-0.887 0.359-1.702 0.885-2.447 1.577-0.744 0.692-1.341 1.622-1.791 2.791-0.45 1.164-0.675 2.481-0.675 3.952v0c0 1.402 0.208 2.697 0.623 3.887 0.411 1.19 0.969 2.185 1.674 2.986 0.71 0.805 1.547 1.428 2.512 1.869 0.969 0.446 2.007 0.668 3.115 0.668v0c0.748 0 1.486-0.11 2.213-0.331 0.723-0.225 1.417-0.578 2.083-1.058 0.662-0.48 1.244-1.069 1.746-1.765 0.502-0.697 0.904-1.558 1.207-2.583 0.303-1.025 0.454-2.15 0.454-3.374v0c0-1.246-0.16-2.386-0.48-3.42-0.316-1.038-0.735-1.906-1.259-2.603-0.523-0.697-1.131-1.285-1.824-1.765-0.688-0.48-1.4-0.829-2.135-1.045-0.735-0.216-1.484-0.324-2.245-0.324zM231.207 246.882l-7.021-22.512h2.855l5.652 18.917 5.705-18.917h2.712l5.861 18.917 5.496-18.917h2.856l-6.944 22.512h-2.869l-5.905-18.807-5.529 18.807zM259.119 246.882v-3.329h3.329v3.329zM291.807 226.745h-10.344v7.353h9.397v2.375h-9.397v10.409h-2.694v-22.512h13.038zM311.737 246.882h-13.194v-22.512h13.194v2.375h-10.501v7.353h9.631v2.375h-9.631v8.034h10.501zM315.624 226.745v-2.375h17.742v2.375h-7.528v20.137h-2.693v-20.137zM351.239 246.882h-13.2v-22.512h13.2v2.375h-10.507v7.353h9.637v2.375h-9.637v8.034h10.507z" fill="#6b7280" fill-rule="nonzero" stroke="none" stroke-width="1" stroke-linecap="butt" stroke-linejoin="miter" stroke-miterlimit="10" stroke-dasharray="" stroke-dashoffset="0" font-family="none" font-weight="none" font-size="none" text-anchor="none" style="mix-blend-mode: normal" data-fill-palette-color="secondary" id="text-1"></path></g></g><g transform="matrix(1,0,0,1,29.33176499999999,65.31421264178385)"><svg viewBox="0 0 316.416 109.66429471643237" height="109.66429471643237" width="316.416"><g><svg viewBox="0 0 316.416 109.66429471643237" height="109.66429471643237" width="316.416"><g><svg viewBox="0 0 316.416 109.66429471643237" height="109.66429471643237" width="316.416"><g id="textblocktransform"><svg viewBox="0 0 316.416 109.66429471643237" height="109.66429471643237" width="316.416" id="textblock"><g><svg viewBox="0 0 316.416 109.66429471643237" height="109.66429471643237" width="316.416"><g transform="matrix(1,0,0,1,0,0)"><svg width="316.416" viewBox="3.5 -35 103.14 35.75" height="109.66429471643237" data-palette-color="#6b7280"><path d="M17.5-33L17.5-33 14-33 14-15.9 24.5-15.9 24.5-13.65 14-13.65 14-2 19.5-2 19.5 0 3.5 0 3.5-2 6.5-2 6.5-33 3.5-33 3.5-35 24.95-35Q26.05-35 26.58-34.93 27.1-34.85 27.55-34.38 28-33.9 28-32.9L28-32.9 26.65-24.5 24.7-24.5 23.7-29.45Q23.25-31.7 22.03-32.35 20.8-33 17.5-33ZM42.2-11.55Q45.45-11.85 47.22-14.03 49-16.2 49-18.43 49-20.65 48.02-21.85 47.05-23.05 45.07-23.05 43.1-23.05 41.3-20.25 39.5-17.45 39.5-12.75 39.5-8.05 41.2-5.2 42.9-2.35 46.05-2.35L46.05-2.35Q50.85-2.35 54.2-6.1L54.2-6.1 55.6-5.2Q53.9-2.5 51.1-0.88 48.3 0.75 44.8 0.75L44.8 0.75Q38.85 0.75 35.3-3.18 31.75-7.1 31.75-12.65 31.75-18.2 35.52-21.98 39.3-25.75 46-25.75L46-25.75Q50.4-25.75 52.9-23.7 55.4-21.65 55.4-18.5 55.4-15.35 52.62-12.68 49.85-10 45.3-10L45.3-10Q43.75-10 42.3-10.35L42.3-10.35 42.2-11.55ZM64.39-22.25L60.3-22.25 60.3-24.3 64.39-24.3 64.39-31.5 71.89-31.5 71.89-24.3 77.55-24.3 77.55-22.25 71.89-22.25 71.89-5.55Q71.89-4.2 72.55-3.43 73.19-2.65 74.55-2.65 75.89-2.65 77.64-4.1L77.64-4.1 78.55-2.9Q74.55 0.75 70.55 0.75L70.55 0.75Q64.39 0.75 64.39-6.6L64.39-6.6 64.39-22.25ZM93.24-11.55Q96.49-11.85 98.27-14.03 100.04-16.2 100.04-18.43 100.04-20.65 99.07-21.85 98.09-23.05 96.12-23.05 94.14-23.05 92.34-20.25 90.54-17.45 90.54-12.75 90.54-8.05 92.24-5.2 93.94-2.35 97.09-2.35L97.09-2.35Q101.89-2.35 105.24-6.1L105.24-6.1 106.64-5.2Q104.94-2.5 102.14-0.88 99.34 0.75 95.84 0.75L95.84 0.75Q89.89 0.75 86.34-3.18 82.79-7.1 82.79-12.65 82.79-18.2 86.57-21.98 90.34-25.75 97.04-25.75L97.04-25.75Q101.44-25.75 103.94-23.7 106.44-21.65 106.44-18.5 106.44-15.35 103.67-12.68 100.89-10 96.34-10L96.34-10Q94.79-10 93.34-10.35L93.34-10.35 93.24-11.55Z" opacity="1" transform="matrix(1,0,0,1,0,0)" fill="#6b7280" class="wordmark-text-0" data-fill-palette-color="primary" id="text-0"></path></svg></g></svg></g></svg></g></svg></g><g></g></svg></g></svg></g></svg></g><defs></defs></svg><rect width="375.07953" height="240.2927200000001" fill="none" stroke="none" visibility="hidden"></rect></g></svg></g></svg>